<svg height="894" width="720" xmlns="http://www.w3.org/2000/svg">
<rect height="894" fill="#555" width="720"></rect>
<text fill="#7f7" font-family="Courier New" font-size="12" xml:space="preserve">
<tspan x="10" y="26">4 megabytes installed</tspan>
<tspan x="10" y="42"></tspan>
<tspan x="10" y="58">node_modules</tspan>
<tspan x="10" y="74">└─┬ tinderbot@0.8.6 </tspan>
<tspan x="10" y="90">  ├─┬ body-parser@1.0.1 </tspan>
<tspan x="10" y="106">  │ ├── qs@0.6.6 </tspan>
<tspan x="10" y="122">  │ └─┬ raw-body@1.1.7 </tspan>
<tspan x="10" y="138">  │   ├── bytes@1.0.0 </tspan>
<tspan x="10" y="154">  │   └── string_decoder@0.10.31 </tspan>
<tspan x="10" y="170">  ├─┬ express@4.0.0 </tspan>
<tspan x="10" y="186">  │ ├─┬ accepts@1.0.0 </tspan>
<tspan x="10" y="202">  │ │ └── negotiator@0.3.0 </tspan>
<tspan x="10" y="218">  │ ├── buffer-crc32@0.2.1 </tspan>
<tspan x="10" y="234">  │ ├── cookie@0.1.0 </tspan>
<tspan x="10" y="250">  │ ├── cookie-signature@1.0.3 </tspan>
<tspan x="10" y="266">  │ ├── debug@0.8.1 </tspan>
<tspan x="10" y="282">  │ ├── escape-html@1.0.1 </tspan>
<tspan x="10" y="298">  │ ├── fresh@0.2.2 </tspan>
<tspan x="10" y="314">  │ ├── merge-descriptors@0.0.2 </tspan>
<tspan x="10" y="330">  │ ├── methods@0.1.0 </tspan>
<tspan x="10" y="346">  │ ├── parseurl@1.0.1 </tspan>
<tspan x="10" y="362">  │ ├── path-to-regexp@0.1.2 </tspan>
<tspan x="10" y="378">  │ ├── range-parser@1.0.0 </tspan>
<tspan x="10" y="394">  │ ├── send@0.2.0 </tspan>
<tspan x="10" y="410">  │ ├─┬ serve-static@1.0.1 </tspan>
<tspan x="10" y="426">  │ │ └─┬ send@0.1.4 </tspan>
<tspan x="10" y="442">  │ │   ├── fresh@0.2.0 </tspan>
<tspan x="10" y="458">  │ │   └── range-parser@0.0.4 </tspan>
<tspan x="10" y="474">  │ ├── type-is@1.0.0 </tspan>
<tspan x="10" y="490">  │ └── utils-merge@1.0.0 </tspan>
<tspan x="10" y="506">  ├─┬ request@2.34.0 </tspan>
<tspan x="10" y="522">  │ ├── aws-sign2@0.5.0 </tspan>
<tspan x="10" y="538">  │ ├── forever-agent@0.5.2 </tspan>
<tspan x="10" y="554">  │ ├─┬ form-data@0.1.4 </tspan>
<tspan x="10" y="570">  │ │ ├── async@0.9.2 </tspan>
<tspan x="10" y="586">  │ │ └─┬ combined-stream@0.0.7 </tspan>
<tspan x="10" y="602">  │ │   └── delayed-stream@0.0.5 </tspan>
<tspan x="10" y="618">  │ ├─┬ hawk@1.0.0 </tspan>
<tspan x="10" y="634">  │ │ ├── boom@0.4.2 </tspan>
<tspan x="10" y="650">  │ │ ├── cryptiles@0.2.2 </tspan>
<tspan x="10" y="666">  │ │ ├── hoek@0.9.1 </tspan>
<tspan x="10" y="682">  │ │ └── sntp@0.2.4 </tspan>
<tspan x="10" y="698">  │ ├─┬ http-signature@0.10.1 </tspan>
<tspan x="10" y="714">  │ │ ├── asn1@0.1.11 </tspan>
<tspan x="10" y="730">  │ │ ├── assert-plus@0.1.5 </tspan>
<tspan x="10" y="746">  │ │ └── ctype@0.5.3 </tspan>
<tspan x="10" y="762">  │ ├── json-stringify-safe@5.0.1 </tspan>
<tspan x="10" y="778">  │ ├── mime@1.2.11 </tspan>
<tspan x="10" y="794">  │ ├── node-uuid@1.4.8 </tspan>
<tspan x="10" y="810">  │ ├── oauth-sign@0.3.0 </tspan>
<tspan x="10" y="826">  │ ├─┬ tough-cookie@2.3.2 </tspan>
<tspan x="10" y="842">  │ │ └── punycode@1.4.1 </tspan>
<tspan x="10" y="858">  │ └── tunnel-agent@0.3.0 </tspan>
<tspan x="10" y="874">  └── tinderjs@1.0.6</tspan>
</text>
</svg>
